<svg xmlns="http://www.w3.org/2000/svg" width="256" height="256" viewBox="0 0 100 100"><rect width="100" height="100" rx="20" fill="#7d6ee7"></rect><path d="M68.13 36.41L68.13 36.41Q68.13 40.28 66.29 43.56Q64.44 46.85 60.13 48.65L60.13 48.65Q65.25 50.36 67.78 54.00Q70.30 57.65 70.30 62.24L70.30 62.24Q70.30 70.43 64.40 74.39Q58.50 78.35 47.61 78.35L47.61 78.35Q43.84 78.35 40.28 78.03Q36.73 77.72 33.48 76.82L33.48 76.82Q29.70 75.74 29.70 72.68L29.70 72.68L29.70 26.60Q29.70 23.99 32.67 23.18L32.67 23.18Q35.73 22.28 39.16 21.97Q42.58 21.65 46.63 21.65L46.63 21.65Q56.80 21.65 62.46 25.25Q68.13 28.85 68.13 36.41ZM49.14 51.89L36.91 51.89L36.91 71.33Q39.06 71.78 41.90 72.05Q44.73 72.32 47.61 72.32L47.61 72.32Q55.09 72.32 58.95 69.84Q62.82 67.37 62.82 62.06L62.82 62.06Q62.82 57.38 59.36 54.64Q55.89 51.89 49.14 51.89L49.14 51.89ZM36.91 28.49L36.91 45.95L49.14 45.95Q54.81 45.95 57.74 43.43Q60.66 40.91 60.66 36.59L60.66 36.59Q60.66 27.68 46.63 27.68L46.63 27.68Q43.47 27.68 41.18 27.91Q38.88 28.13 36.91 28.49L36.91 28.49Z" fill="#fff"></path></svg>